<svg width="1440" height="568" viewBox="0 0 1440 568" fill="none" xmlns="http://www.w3.org/2000/svg">
<path d="M144.989 97C142.619 101.738 141.31 104.1 139.989 104.1C138.669 104.1 137.359 101.738 135 97C137.359 101.738 138.485 104.238 137.825 105.55C137.165 106.863 134.729 107 130 107C134.903 107 137.338 107.137 137.89 108.587C138.409 109.937 137.284 112.425 135 117C137.37 112.262 138.68 109.9 140 109.9C141.32 109.9 142.63 112.262 145 117C142.489 111.963 141.385 109.462 142.316 108.212C143.139 107.112 145.563 107 150 107C145 107 142.565 106.85 142.078 105.312C141.634 103.938 142.76 101.463 144.989 97Z" fill="white"/>
<path d="M1222.88 219L1224.55 231.228L1238.34 223.393L1226.92 232.852L1244.75 234L1226.92 235.148L1238.34 244.607L1224.55 236.772L1222.88 249L1221.2 236.772L1207.41 244.607L1218.83 235.148L1201 234L1218.83 232.852L1207.41 223.393L1221.2 231.228L1222.88 219Z" fill="white"/>
<path d="M180 159.989C172.154 160.524 167.646 161.016 164.879 162.641C161.626 164.544 160.856 168.029 160 175C159.116 167.773 158.317 164.309 154.75 162.448C151.983 160.994 147.504 160.524 140 160.011C147.817 159.476 152.354 158.984 155.093 157.381C158.374 155.456 159.144 151.992 160 145C160.799 151.436 161.512 154.879 164.165 156.867C166.819 158.856 171.441 159.412 180 159.989Z" fill="white"/>
<g filter="url(#filter0_iiii_642_3075)">
<ellipse cx="1062.42" cy="209.243" rx="52.2401" ry="50" transform="rotate(-59.9953 1062.42 209.243)" fill="url(#paint0_linear_642_3075)"/>
</g>
<defs>
<filter id="filter0_iiii_642_3075" x="971.846" y="107.493" width="141.154" height="173.469" filterUnits="userSpaceOnUse" color-interpolation-filters="sRGB">
<feFlood flood-opacity="0" result="BackgroundImageFix"/>
<feBlend mode="normal" in="SourceGraphic" in2="BackgroundImageFix" result="shape"/>
<feColorMatrix in="SourceAlpha" type="matrix" values="0 0 0 0 0 0 0 0 0 0 0 0 0 0 0 0 0 0 127 0" result="hardAlpha"/>
<feOffset dx="-35.0358" dy="-50.0511"/>
<feGaussianBlur stdDeviation="50.0511"/>
<feComposite in2="hardAlpha" operator="arithmetic" k2="-1" k3="1"/>
<feColorMatrix type="matrix" values="0 0 0 0 0.883333 0 0 0 0 0.235556 0 0 0 0 0.235556 0 0 0 0.76 0"/>
<feBlend mode="normal" in2="shape" result="effect1_innerShadow_642_3075"/>
<feColorMatrix in="SourceAlpha" type="matrix" values="0 0 0 0 0 0 0 0 0 0 0 0 0 0 0 0 0 0 127 0" result="hardAlpha"/>
<feOffset dx="-5.00511" dy="-5.00511"/>
<feGaussianBlur stdDeviation="10.0102"/>
<feComposite in2="hardAlpha" operator="arithmetic" k2="-1" k3="1"/>
<feColorMatrix type="matrix" values="0 0 0 0 0.3325 0 0 0 0 0.0675 0 0 0 0 0.0675001 0 0 0 1 0"/>
<feBlend mode="normal" in2="effect1_innerShadow_642_3075" result="effect2_innerShadow_642_3075"/>
<feColorMatrix in="SourceAlpha" type="matrix" values="0 0 0 0 0 0 0 0 0 0 0 0 0 0 0 0 0 0 127 0" result="hardAlpha"/>
<feOffset dy="20.0205"/>
<feGaussianBlur stdDeviation="10.0102"/>
<feComposite in2="hardAlpha" operator="arithmetic" k2="-1" k3="1"/>
<feColorMatrix type="matrix" values="0 0 0 0 1 0 0 0 0 0.9905 0 0 0 0 0.7625 0 0 0 0.25 0"/>
<feBlend mode="normal" in2="effect2_innerShadow_642_3075" result="effect3_innerShadow_642_3075"/>
<feColorMatrix in="SourceAlpha" type="matrix" values="0 0 0 0 0 0 0 0 0 0 0 0 0 0 0 0 0 0 127 0" result="hardAlpha"/>
<feOffset dx="-40" dy="-20"/>
<feGaussianBlur stdDeviation="20"/>
<feComposite in2="hardAlpha" operator="arithmetic" k2="-1" k3="1"/>
<feColorMatrix type="matrix" values="0 0 0 0 0 0 0 0 0 0 0 0 0 0 0 0 0 0 0.25 0"/>
<feBlend mode="normal" in2="effect3_innerShadow_642_3075" result="effect4_innerShadow_642_3075"/>
</filter>
<linearGradient id="paint0_linear_642_3075" x1="1013.74" y1="189.881" x2="1074.49" y2="216.459" gradientUnits="userSpaceOnUse">
<stop stop-color="#F3DD16"/>
<stop offset="1" stop-color="#BD391C"/>
</linearGradient>
</defs>
</svg>
